<?xml version="1.0" encoding="utf-8"?>
<!-- Generator: Adobe Illustrator 19.0.0, SVG Export Plug-In . SVG Version: 6.00 Build 0)  -->
<svg version="1.1" id="Capa_1" xmlns="http://www.w3.org/2000/svg" xmlns:xlink="http://www.w3.org/1999/xlink" x="0px" y="0px"
	 viewBox="0 0 440.8 80.5" style="enable-background:new 0 0 440.8 80.5;" xml:space="preserve">
<style type="text/css">
	.st0{fill:#666666;}
	.st1{fill:#00478E;}
	.st2{fill:#0078BE;}
	.st3{fill:#FF0ECC;}
	.st4{fill:#2896C8;}
	.st5{fill:#17B6DA;}
	.st6{fill:#B6E3F2;}
	.st7{fill:#E4F8FF;}
	.st8{fill:#3CB371;}
	.st9{fill:#73C699;}
	.st10{fill:#FBAD34;}
	.st11{fill:#FFFFFF;stroke:#000000;stroke-miterlimit:10;}
	.st12{fill:#F3F2F1;}
	.st13{fill:#D3D2D1;}
	.st14{fill:#999999;}
	.st15{fill:#333333;}
	.st16{opacity:0.4;}
	.st17{fill:#F47920;}
	.st18{fill:#F44336;}
	.st19{fill:#B3001B;}
	.st20{fill:#FFFFFF;}
	.st21{fill:#004987;}
	.st22{opacity:0.69;fill:url(#XMLID_113_);}
	.st23{fill:#00609C;}
	.st24{fill:none;}
	.st25{fill:#1865F0;}
	.st26{fill:#002B81;}
</style>
<g id="XMLID_1_">
	<g id="XMLID_14_">
		<path id="XMLID_24_" d="M-1104.3-249.3c0.1,0,0.2,0,0.2,0c0.1,0,0.2,0.1,0.2,0.1l1.3,1.4c-0.6,0.7-1.3,1.3-2.1,1.7
			c-0.9,0.4-1.9,0.6-3,0.6c-1.1,0-2-0.2-2.9-0.5c-0.8-0.4-1.6-0.9-2.2-1.5c-0.6-0.6-1-1.4-1.4-2.3c-0.3-0.9-0.5-1.8-0.5-2.9
			c0-1.1,0.2-2,0.5-2.9c0.4-0.9,0.9-1.6,1.5-2.3c0.6-0.6,1.4-1.1,2.3-1.5c0.9-0.4,1.9-0.5,3-0.5c0.5,0,1,0,1.5,0.1s0.9,0.2,1.3,0.4
			c0.4,0.2,0.8,0.4,1.1,0.6c0.3,0.2,0.6,0.5,0.9,0.8l-1.1,1.5c-0.1,0.1-0.2,0.2-0.3,0.2c-0.1,0.1-0.2,0.1-0.4,0.1
			c-0.1,0-0.2,0-0.3-0.1c-0.1-0.1-0.2-0.1-0.3-0.2c-0.1-0.1-0.2-0.2-0.4-0.2c-0.1-0.1-0.3-0.2-0.5-0.2c-0.2-0.1-0.4-0.1-0.7-0.2
			c-0.3-0.1-0.6-0.1-0.9-0.1c-0.6,0-1.1,0.1-1.6,0.3c-0.5,0.2-0.9,0.5-1.3,0.9c-0.4,0.4-0.6,0.9-0.8,1.4c-0.2,0.6-0.3,1.2-0.3,1.9
			c0,0.7,0.1,1.4,0.3,1.9c0.2,0.6,0.5,1,0.8,1.4c0.3,0.4,0.7,0.7,1.2,0.9c0.5,0.2,0.9,0.3,1.5,0.3c0.3,0,0.6,0,0.8,0
			c0.2,0,0.5-0.1,0.7-0.1c0.2-0.1,0.4-0.2,0.6-0.3c0.2-0.1,0.4-0.3,0.6-0.4c0.1-0.1,0.2-0.1,0.3-0.2
			C-1104.4-249.3-1104.3-249.3-1104.3-249.3z"/>
		<path id="XMLID_26_" d="M-1087.1-252.7c0,1-0.2,2-0.5,2.8c-0.4,0.9-0.8,1.6-1.5,2.3c-0.6,0.6-1.4,1.2-2.3,1.5s-1.9,0.6-3,0.6
			c-1.1,0-2.1-0.2-3-0.6c-0.9-0.4-1.7-0.9-2.3-1.5c-0.6-0.6-1.1-1.4-1.5-2.3c-0.4-0.9-0.5-1.8-0.5-2.8c0-1,0.2-2,0.5-2.8
			c0.4-0.9,0.8-1.6,1.5-2.3c0.6-0.6,1.4-1.2,2.3-1.5c0.9-0.4,1.9-0.6,3-0.6c1.1,0,2.1,0.2,3,0.6c0.9,0.4,1.7,0.9,2.3,1.5
			c0.6,0.6,1.1,1.4,1.5,2.3C-1087.3-254.7-1087.1-253.8-1087.1-252.7z M-1090.4-252.7c0-0.7-0.1-1.3-0.3-1.9c-0.2-0.6-0.4-1-0.8-1.4
			c-0.3-0.4-0.8-0.7-1.2-0.9c-0.5-0.2-1-0.3-1.7-0.3c-0.6,0-1.2,0.1-1.7,0.3c-0.5,0.2-0.9,0.5-1.2,0.9c-0.3,0.4-0.6,0.9-0.8,1.4
			c-0.2,0.6-0.3,1.2-0.3,1.9c0,0.7,0.1,1.3,0.3,1.9c0.2,0.6,0.4,1,0.8,1.4c0.3,0.4,0.8,0.7,1.2,0.9c0.5,0.2,1.1,0.3,1.7,0.3
			c0.6,0,1.2-0.1,1.7-0.3c0.5-0.2,0.9-0.5,1.2-0.9c0.3-0.4,0.6-0.9,0.8-1.4C-1090.5-251.4-1090.4-252-1090.4-252.7z"/>
		<path id="XMLID_29_" d="M-1082.2-248.3h5.2v2.6h-8.5v-14.1h3.3V-248.3z"/>
		<path id="XMLID_31_" d="M-1062.3-252.7c0,1-0.2,2-0.5,2.8c-0.4,0.9-0.8,1.6-1.5,2.3c-0.6,0.6-1.4,1.2-2.3,1.5s-1.9,0.6-3,0.6
			c-1.1,0-2.1-0.2-3-0.6s-1.7-0.9-2.3-1.5c-0.6-0.6-1.1-1.4-1.5-2.3c-0.4-0.9-0.5-1.8-0.5-2.8c0-1,0.2-2,0.5-2.8
			c0.4-0.9,0.8-1.6,1.5-2.3c0.6-0.6,1.4-1.2,2.3-1.5s1.9-0.6,3-0.6c1.1,0,2.1,0.2,3,0.6c0.9,0.4,1.7,0.9,2.3,1.5
			c0.6,0.6,1.1,1.4,1.5,2.3C-1062.5-254.7-1062.3-253.8-1062.3-252.7z M-1065.7-252.7c0-0.7-0.1-1.3-0.3-1.9c-0.2-0.6-0.4-1-0.8-1.4
			c-0.3-0.4-0.8-0.7-1.2-0.9c-0.5-0.2-1-0.3-1.7-0.3c-0.6,0-1.2,0.1-1.7,0.3c-0.5,0.2-0.9,0.5-1.2,0.9c-0.3,0.4-0.6,0.9-0.8,1.4
			c-0.2,0.6-0.3,1.2-0.3,1.9c0,0.7,0.1,1.3,0.3,1.9c0.2,0.6,0.4,1,0.8,1.4c0.3,0.4,0.8,0.7,1.2,0.9c0.5,0.2,1.1,0.3,1.7,0.3
			c0.6,0,1.2-0.1,1.7-0.3c0.5-0.2,0.9-0.5,1.2-0.9c0.3-0.4,0.6-0.9,0.8-1.4C-1065.8-251.4-1065.7-252-1065.7-252.7z"/>
		<path id="XMLID_34_" d="M-1057.5-250.9v5.2h-3.3v-14.1h4.6c1,0,1.9,0.1,2.6,0.3c0.7,0.2,1.3,0.5,1.8,0.9c0.5,0.4,0.8,0.8,1,1.3
			c0.2,0.5,0.3,1.1,0.3,1.7c0,0.5-0.1,0.9-0.2,1.3c-0.1,0.4-0.3,0.8-0.5,1.1c-0.2,0.3-0.5,0.7-0.9,0.9c-0.4,0.3-0.8,0.5-1.2,0.7
			c0.2,0.1,0.4,0.2,0.6,0.4c0.2,0.2,0.4,0.4,0.5,0.6l3,4.9h-3c-0.5,0-0.9-0.2-1.2-0.6l-2.3-4.1c-0.1-0.2-0.2-0.3-0.4-0.4
			c-0.1-0.1-0.3-0.1-0.6-0.1H-1057.5z M-1057.5-253.2h1.3c0.4,0,0.8-0.1,1.1-0.2c0.3-0.1,0.6-0.3,0.8-0.5s0.3-0.4,0.4-0.7
			c0.1-0.3,0.1-0.6,0.1-0.9c0-0.6-0.2-1.1-0.6-1.5c-0.4-0.3-1-0.5-1.9-0.5h-1.3V-253.2z"/>
		<path id="XMLID_37_" d="M-1038.8-259.8v2.5h-5.8v3.3h4.4v2.4h-4.4v3.4h5.8v2.5h-9.1v-14.1H-1038.8z"/>
		<path id="XMLID_39_" d="M-1029.1-256.9c-0.1,0.2-0.2,0.3-0.3,0.3c-0.1,0.1-0.2,0.1-0.4,0.1c-0.1,0-0.3,0-0.5-0.1
			c-0.2-0.1-0.4-0.2-0.6-0.3c-0.2-0.1-0.5-0.2-0.7-0.3c-0.3-0.1-0.6-0.1-0.9-0.1c-0.6,0-1.1,0.1-1.4,0.4c-0.3,0.3-0.5,0.6-0.5,1.1
			c0,0.3,0.1,0.5,0.3,0.7c0.2,0.2,0.4,0.3,0.7,0.5c0.3,0.1,0.6,0.3,1,0.4c0.4,0.1,0.8,0.2,1.2,0.4c0.4,0.1,0.8,0.3,1.2,0.5
			c0.4,0.2,0.7,0.4,1,0.7c0.3,0.3,0.5,0.6,0.7,1.1c0.2,0.4,0.3,0.9,0.3,1.5c0,0.7-0.1,1.3-0.3,1.8c-0.2,0.6-0.6,1.1-1,1.5
			c-0.4,0.4-1,0.8-1.6,1s-1.3,0.4-2.1,0.4c-0.4,0-0.9,0-1.3-0.1c-0.5-0.1-0.9-0.2-1.3-0.4c-0.4-0.2-0.8-0.4-1.2-0.6
			c-0.4-0.2-0.7-0.5-1-0.8l1-1.5c0.1-0.1,0.2-0.2,0.3-0.3c0.1-0.1,0.3-0.1,0.4-0.1c0.2,0,0.4,0.1,0.6,0.2c0.2,0.1,0.4,0.3,0.7,0.4
			c0.2,0.1,0.5,0.3,0.9,0.4c0.3,0.1,0.7,0.2,1.1,0.2c0.6,0,1.1-0.1,1.4-0.4c0.3-0.3,0.5-0.7,0.5-1.2c0-0.3-0.1-0.6-0.3-0.8
			c-0.2-0.2-0.4-0.4-0.7-0.5c-0.3-0.1-0.6-0.3-1-0.4c-0.4-0.1-0.8-0.2-1.2-0.3c-0.4-0.1-0.8-0.3-1.2-0.5c-0.4-0.2-0.7-0.4-1-0.7
			c-0.3-0.3-0.5-0.7-0.7-1.1s-0.3-1-0.3-1.7c0-0.5,0.1-1,0.3-1.5c0.2-0.5,0.5-1,0.9-1.3c0.4-0.4,0.9-0.7,1.5-0.9s1.3-0.4,2.1-0.4
			c0.4,0,0.9,0,1.3,0.1c0.4,0.1,0.8,0.2,1.2,0.3c0.4,0.1,0.7,0.3,1,0.5c0.3,0.2,0.6,0.4,0.9,0.6L-1029.1-256.9z"/>
		<path id="XMLID_41_" class="st0" d="M-1101.8-222.5h-1.5c-0.2,0-0.3,0-0.4-0.1c-0.1-0.1-0.2-0.2-0.2-0.3l-1.3-3.3h-6.2l-1.3,3.3
			c0,0.1-0.1,0.2-0.2,0.3c-0.1,0.1-0.2,0.1-0.4,0.1h-1.5l5.5-13.9h1.9L-1101.8-222.5z M-1110.9-227.6h5.2l-2.2-5.6
			c-0.1-0.3-0.3-0.8-0.4-1.3c-0.1,0.3-0.1,0.5-0.2,0.7c-0.1,0.2-0.1,0.4-0.2,0.6L-1110.9-227.6z"/>
		<path id="XMLID_44_" class="st0" d="M-1090.4-236.3v0.7c0,0.2-0.1,0.4-0.2,0.6l-7.9,11h7.9v1.5h-10.4v-0.7c0-0.2,0.1-0.4,0.2-0.6
			l7.9-11.1h-7.7v-1.5H-1090.4z"/>
		<path id="XMLID_46_" class="st0" d="M-1082.6-223.9c0.6,0,1.1-0.1,1.5-0.3c0.5-0.2,0.8-0.5,1.1-0.8c0.3-0.3,0.6-0.8,0.7-1.2
			c0.2-0.5,0.2-1,0.2-1.6v-8.4h1.9v8.4c0,0.8-0.1,1.5-0.4,2.2c-0.3,0.7-0.6,1.3-1.1,1.8c-0.5,0.5-1.1,0.9-1.7,1.2
			c-0.7,0.3-1.5,0.4-2.3,0.4c-0.9,0-1.6-0.1-2.3-0.4c-0.7-0.3-1.3-0.7-1.7-1.2c-0.5-0.5-0.8-1.1-1.1-1.8c-0.3-0.7-0.4-1.4-0.4-2.2
			v-8.4h1.9v8.4c0,0.6,0.1,1.1,0.2,1.6c0.2,0.5,0.4,0.9,0.7,1.2c0.3,0.3,0.7,0.6,1.2,0.8C-1083.7-224-1083.1-223.9-1082.6-223.9z"/>
		<path id="XMLID_48_" class="st0" d="M-1071.8-228.2v5.8h-1.9v-13.9h3.9c0.9,0,1.6,0.1,2.3,0.3c0.6,0.2,1.2,0.4,1.6,0.8
			c0.4,0.3,0.7,0.7,0.9,1.2c0.2,0.5,0.3,1,0.3,1.6c0,0.5-0.1,0.9-0.2,1.4c-0.2,0.4-0.4,0.8-0.7,1.1c-0.3,0.3-0.7,0.6-1.1,0.9
			c-0.4,0.2-0.9,0.4-1.4,0.5c0.2,0.1,0.4,0.3,0.6,0.6l4,5.5h-1.7c-0.3,0-0.6-0.1-0.8-0.4l-3.6-5c-0.1-0.2-0.2-0.3-0.4-0.3
			c-0.1-0.1-0.3-0.1-0.6-0.1H-1071.8z M-1071.8-229.6h2c0.5,0,1-0.1,1.4-0.2c0.4-0.1,0.8-0.3,1-0.6c0.3-0.2,0.5-0.5,0.6-0.9
			c0.1-0.3,0.2-0.7,0.2-1.1c0-0.8-0.3-1.4-0.8-1.9c-0.5-0.4-1.4-0.6-2.4-0.6h-2.1V-229.6z"/>
		<path id="XMLID_51_" class="st0" d="M-1051.4-223.8c0.4,0,0.7,0,1-0.1c0.3,0,0.6-0.1,0.9-0.2s0.5-0.2,0.8-0.3
			c0.2-0.1,0.5-0.2,0.7-0.3v-3.1h-2.1c-0.1,0-0.2,0-0.3-0.1c-0.1-0.1-0.1-0.2-0.1-0.3v-1.1h4.3v5.3c-0.3,0.3-0.7,0.5-1.1,0.7
			c-0.4,0.2-0.8,0.3-1.2,0.5c-0.4,0.1-0.9,0.2-1.4,0.3c-0.5,0.1-1,0.1-1.6,0.1c-1,0-1.9-0.2-2.8-0.5c-0.8-0.3-1.6-0.8-2.2-1.5
			c-0.6-0.6-1.1-1.4-1.4-2.2s-0.5-1.8-0.5-2.9c0-1.1,0.2-2,0.5-2.9c0.3-0.9,0.8-1.6,1.4-2.2c0.6-0.6,1.4-1.1,2.2-1.4
			c0.9-0.3,1.9-0.5,2.9-0.5c0.5,0,1.1,0,1.5,0.1c0.5,0.1,0.9,0.2,1.3,0.3c0.4,0.2,0.8,0.3,1.1,0.6c0.3,0.2,0.7,0.5,1,0.7l-0.5,0.9
			c-0.1,0.2-0.3,0.3-0.4,0.3c-0.1,0-0.2,0-0.3-0.1c-0.2-0.1-0.3-0.2-0.5-0.3c-0.2-0.1-0.4-0.3-0.7-0.4c-0.3-0.1-0.6-0.2-1-0.3
			c-0.4-0.1-0.9-0.1-1.4-0.1c-0.8,0-1.5,0.1-2.1,0.4c-0.6,0.3-1.2,0.6-1.6,1.1c-0.4,0.5-0.8,1-1,1.7c-0.2,0.7-0.4,1.4-0.4,2.3
			c0,0.9,0.1,1.7,0.4,2.3c0.2,0.7,0.6,1.3,1.1,1.7c0.5,0.5,1,0.8,1.6,1.1C-1052.9-223.9-1052.2-223.8-1051.4-223.8z"/>
		<path id="XMLID_53_" class="st0" d="M-1041.5-224h6v1.6h-7.9v-13.9h1.9V-224z"/>
		<path id="XMLID_55_" class="st0" d="M-1021.3-229.4c0,1-0.2,2-0.5,2.9s-0.8,1.6-1.4,2.2c-0.6,0.6-1.3,1.1-2.2,1.5
			s-1.8,0.5-2.8,0.5c-1,0-1.9-0.2-2.8-0.5c-0.8-0.3-1.6-0.8-2.2-1.5c-0.6-0.6-1.1-1.4-1.4-2.2c-0.3-0.9-0.5-1.8-0.5-2.9
			c0-1,0.2-2,0.5-2.9c0.3-0.9,0.8-1.6,1.4-2.2c0.6-0.6,1.3-1.1,2.2-1.5c0.8-0.3,1.8-0.5,2.8-0.5c1,0,2,0.2,2.8,0.5
			c0.8,0.3,1.6,0.8,2.2,1.5c0.6,0.6,1.1,1.4,1.4,2.2S-1021.3-230.4-1021.3-229.4z M-1023.3-229.4c0-0.9-0.1-1.6-0.3-2.3
			c-0.2-0.7-0.6-1.3-1-1.7c-0.4-0.5-0.9-0.8-1.5-1.1c-0.6-0.3-1.3-0.4-2-0.4c-0.7,0-1.4,0.1-2,0.4c-0.6,0.3-1.1,0.6-1.6,1.1
			c-0.4,0.5-0.8,1-1,1.7c-0.2,0.7-0.3,1.4-0.3,2.3c0,0.9,0.1,1.6,0.3,2.3s0.6,1.2,1,1.7c0.4,0.5,0.9,0.8,1.6,1.1
			c0.6,0.2,1.3,0.4,2,0.4c0.7,0,1.4-0.1,2-0.4c0.6-0.2,1.1-0.6,1.5-1.1c0.4-0.5,0.8-1,1-1.7S-1023.3-228.5-1023.3-229.4z"/>
		<path id="XMLID_58_" class="st0" d="M-1018.8-222.5v-13.9h4.4c0.9,0,1.6,0.1,2.2,0.3c0.6,0.2,1.1,0.4,1.5,0.7
			c0.4,0.3,0.7,0.7,0.9,1.1c0.2,0.4,0.3,1,0.3,1.5c0,0.3-0.1,0.7-0.2,1c-0.1,0.3-0.3,0.6-0.5,0.9c-0.2,0.3-0.5,0.5-0.8,0.7
			c-0.3,0.2-0.7,0.4-1.1,0.5c1,0.2,1.8,0.6,2.3,1.1c0.5,0.5,0.8,1.2,0.8,2.1c0,0.6-0.1,1.1-0.3,1.6c-0.2,0.5-0.5,0.9-0.9,1.2
			c-0.4,0.3-0.9,0.6-1.5,0.8c-0.6,0.2-1.3,0.3-2.1,0.3H-1018.8z M-1016.9-230.1h2.5c0.5,0,1-0.1,1.4-0.2c0.4-0.1,0.7-0.3,1-0.5
			c0.3-0.2,0.4-0.5,0.6-0.8c0.1-0.3,0.2-0.6,0.2-1c0-0.8-0.2-1.4-0.7-1.8c-0.5-0.4-1.3-0.6-2.3-0.6h-2.5V-230.1z M-1016.9-228.8v4.8
			h3c0.5,0,1-0.1,1.4-0.2c0.4-0.1,0.7-0.3,0.9-0.5c0.2-0.2,0.4-0.5,0.5-0.8c0.1-0.3,0.2-0.6,0.2-1c0-0.7-0.3-1.3-0.8-1.7
			c-0.5-0.4-1.3-0.6-2.3-0.6H-1016.9z"/>
		<path id="XMLID_62_" class="st0" d="M-994.8-222.5h-1.5c-0.2,0-0.3,0-0.4-0.1c-0.1-0.1-0.2-0.2-0.2-0.3l-1.3-3.3h-6.2l-1.3,3.3
			c0,0.1-0.1,0.2-0.2,0.3c-0.1,0.1-0.2,0.1-0.4,0.1h-1.5l5.5-13.9h1.9L-994.8-222.5z M-1003.9-227.6h5.2l-2.2-5.6
			c-0.1-0.3-0.3-0.8-0.4-1.3c-0.1,0.3-0.1,0.5-0.2,0.7c-0.1,0.2-0.1,0.4-0.2,0.6L-1003.9-227.6z"/>
		<path id="XMLID_65_" class="st0" d="M-991.2-224h6v1.6h-7.9v-13.9h1.9V-224z"/>
	</g>
	<rect id="XMLID_2_" x="-1114.8" y="-188" class="st1" width="129.6" height="10.1"/>
	<rect id="XMLID_103_" x="-855.6" y="-188" class="st2" width="336.9" height="10.1"/>
	<rect id="XMLID_98_" x="-959.3" y="-188" class="st3" width="77.8" height="10.1"/>
</g>
<text id="XMLID_445_" transform="matrix(0 -1 1 0 -1180.7278 -128.7369)" style="font-family:'Manrope-ExtraBold'; font-size:54.9469px;">ANTES</text>
<g id="XMLID_3_">
	<rect id="XMLID_291_" x="-1102.8" y="71.5" class="st1" width="25.9" height="25.9"/>
	<rect id="XMLID_290_" x="-1102.8" y="123.3" class="st2" width="25.9" height="25.9"/>
	<rect id="XMLID_289_" x="-1102.8" y="175.2" class="st4" width="25.9" height="25.9"/>
	<rect id="XMLID_288_" x="-1102.8" y="227" class="st5" width="25.9" height="25.9"/>
	<rect id="XMLID_287_" x="-1050.9" y="71.5" class="st6" width="25.9" height="25.9"/>
	<rect id="XMLID_286_" x="-999.1" y="71.5" class="st7" width="25.9" height="25.9"/>
	<rect id="XMLID_285_" x="-947.2" y="71.5" class="st8" width="25.9" height="25.9"/>
	<rect id="XMLID_284_" x="-895.4" y="71.5" class="st9" width="25.9" height="25.9"/>
	<rect id="XMLID_283_" x="-895.4" y="123.3" class="st10" width="25.9" height="25.9"/>
	<rect id="XMLID_282_" x="-843.6" y="71.5" class="st11" width="25.9" height="25.9"/>
	<rect id="XMLID_281_" x="-791.7" y="71.5" class="st12" width="25.9" height="25.9"/>
	<rect id="XMLID_280_" x="-739.9" y="71.5" class="st13" width="25.9" height="25.9"/>
	<rect id="XMLID_279_" x="-688.1" y="71.5" class="st14" width="25.9" height="25.9"/>
	<rect id="XMLID_278_" x="-636.2" y="71.5" class="st0" width="25.9" height="25.9"/>
	<rect id="XMLID_277_" x="-584.4" y="71.5" class="st15" width="25.9" height="25.9"/>
	<rect id="XMLID_276_" x="-532.6" y="71.5" width="25.9" height="25.9"/>
	<rect id="XMLID_275_" x="-480.7" y="71.4" class="st16" width="25.9" height="25.9"/>
	<rect id="XMLID_274_" x="-947.2" y="123.3" class="st17" width="25.9" height="25.9"/>
	<rect id="XMLID_256_" x="-895.4" y="175.2" class="st18" width="25.9" height="25.9"/>
	<rect id="XMLID_255_" x="-947.2" y="175.2" class="st19" width="25.9" height="25.9"/>
	<g id="XMLID_207_">
		<path id="XMLID_253_" d="M-1092.2-15.5c0.1,0,0.2,0,0.2,0c0.1,0,0.2,0.1,0.2,0.1l1.3,1.4c-0.6,0.7-1.3,1.3-2.1,1.7
			c-0.9,0.4-1.9,0.6-3,0.6c-1.1,0-2-0.2-2.9-0.5c-0.8-0.4-1.6-0.9-2.2-1.5c-0.6-0.6-1-1.4-1.4-2.3c-0.3-0.9-0.5-1.8-0.5-2.9
			c0-1.1,0.2-2,0.5-2.9c0.4-0.9,0.9-1.6,1.5-2.3c0.6-0.6,1.4-1.1,2.3-1.5c0.9-0.4,1.9-0.5,3-0.5c0.5,0,1,0,1.5,0.1
			c0.5,0.1,0.9,0.2,1.3,0.4c0.4,0.2,0.8,0.4,1.1,0.6c0.3,0.2,0.6,0.5,0.9,0.8l-1.1,1.5c-0.1,0.1-0.2,0.2-0.3,0.2
			c-0.1,0.1-0.2,0.1-0.4,0.1c-0.1,0-0.2,0-0.3-0.1c-0.1-0.1-0.2-0.1-0.3-0.2c-0.1-0.1-0.2-0.2-0.4-0.2c-0.1-0.1-0.3-0.2-0.5-0.2
			c-0.2-0.1-0.4-0.1-0.7-0.2c-0.3-0.1-0.6-0.1-0.9-0.1c-0.6,0-1.1,0.1-1.6,0.3c-0.5,0.2-0.9,0.5-1.3,0.9c-0.4,0.4-0.6,0.9-0.8,1.4
			c-0.2,0.6-0.3,1.2-0.3,1.9c0,0.7,0.1,1.4,0.3,1.9c0.2,0.6,0.5,1,0.8,1.4c0.3,0.4,0.7,0.7,1.2,0.9c0.5,0.2,0.9,0.3,1.5,0.3
			c0.3,0,0.6,0,0.8,0c0.2,0,0.5-0.1,0.7-0.1c0.2-0.1,0.4-0.2,0.6-0.3c0.2-0.1,0.4-0.3,0.6-0.4c0.1-0.1,0.2-0.1,0.3-0.2
			C-1092.4-15.5-1092.3-15.5-1092.2-15.5z"/>
		<path id="XMLID_250_" d="M-1075-18.9c0,1-0.2,2-0.5,2.8c-0.4,0.9-0.8,1.6-1.5,2.3s-1.4,1.2-2.3,1.5c-0.9,0.4-1.9,0.6-3,0.6
			c-1.1,0-2.1-0.2-3-0.6c-0.9-0.4-1.7-0.9-2.3-1.5c-0.6-0.6-1.1-1.4-1.5-2.3c-0.4-0.9-0.5-1.8-0.5-2.8c0-1,0.2-2,0.5-2.8
			c0.4-0.9,0.8-1.6,1.5-2.3c0.6-0.6,1.4-1.2,2.3-1.5c0.9-0.4,1.9-0.6,3-0.6c1.1,0,2.1,0.2,3,0.6c0.9,0.4,1.7,0.9,2.3,1.5
			s1.1,1.4,1.5,2.3C-1075.2-20.9-1075-19.9-1075-18.9z M-1078.4-18.9c0-0.7-0.1-1.3-0.3-1.9c-0.2-0.6-0.4-1-0.8-1.4
			c-0.3-0.4-0.8-0.7-1.2-0.9c-0.5-0.2-1-0.3-1.7-0.3c-0.6,0-1.2,0.1-1.7,0.3c-0.5,0.2-0.9,0.5-1.2,0.9c-0.3,0.4-0.6,0.9-0.8,1.4
			c-0.2,0.6-0.3,1.2-0.3,1.9c0,0.7,0.1,1.3,0.3,1.9c0.2,0.6,0.4,1,0.8,1.4c0.3,0.4,0.8,0.7,1.2,0.9c0.5,0.2,1.1,0.3,1.7,0.3
			c0.6,0,1.2-0.1,1.7-0.3c0.5-0.2,0.9-0.5,1.2-0.9c0.3-0.4,0.6-0.9,0.8-1.4C-1078.5-17.6-1078.4-18.2-1078.4-18.9z"/>
		<path id="XMLID_248_" d="M-1070.2-14.5h5.2v2.6h-8.5V-26h3.3V-14.5z"/>
		<path id="XMLID_245_" d="M-1050.3-18.9c0,1-0.2,2-0.5,2.8c-0.4,0.9-0.8,1.6-1.5,2.3c-0.6,0.6-1.4,1.2-2.3,1.5
			c-0.9,0.4-1.9,0.6-3,0.6s-2.1-0.2-3-0.6c-0.9-0.4-1.7-0.9-2.3-1.5c-0.6-0.6-1.1-1.4-1.5-2.3c-0.4-0.9-0.5-1.8-0.5-2.8
			c0-1,0.2-2,0.5-2.8c0.4-0.9,0.8-1.6,1.5-2.3c0.6-0.6,1.4-1.2,2.3-1.5c0.9-0.4,1.9-0.6,3-0.6s2.1,0.2,3,0.6
			c0.9,0.4,1.7,0.9,2.3,1.5c0.6,0.6,1.1,1.4,1.5,2.3C-1050.5-20.9-1050.3-19.9-1050.3-18.9z M-1053.6-18.9c0-0.7-0.1-1.3-0.3-1.9
			c-0.2-0.6-0.4-1-0.8-1.4c-0.3-0.4-0.8-0.7-1.2-0.9c-0.5-0.2-1-0.3-1.7-0.3c-0.6,0-1.2,0.1-1.7,0.3c-0.5,0.2-0.9,0.5-1.2,0.9
			c-0.3,0.4-0.6,0.9-0.8,1.4c-0.2,0.6-0.3,1.2-0.3,1.9c0,0.7,0.1,1.3,0.3,1.9c0.2,0.6,0.4,1,0.8,1.4c0.3,0.4,0.8,0.7,1.2,0.9
			c0.5,0.2,1.1,0.3,1.7,0.3c0.6,0,1.2-0.1,1.7-0.3c0.5-0.2,0.9-0.5,1.2-0.9c0.3-0.4,0.6-0.9,0.8-1.4
			C-1053.7-17.6-1053.6-18.2-1053.6-18.9z"/>
		<path id="XMLID_242_" d="M-1045.4-17.1v5.2h-3.3V-26h4.6c1,0,1.9,0.1,2.6,0.3c0.7,0.2,1.3,0.5,1.8,0.9c0.5,0.4,0.8,0.8,1,1.3
			c0.2,0.5,0.3,1.1,0.3,1.7c0,0.5-0.1,0.9-0.2,1.3c-0.1,0.4-0.3,0.8-0.5,1.1c-0.2,0.3-0.5,0.7-0.9,0.9c-0.4,0.3-0.8,0.5-1.2,0.7
			c0.2,0.1,0.4,0.2,0.6,0.4c0.2,0.2,0.4,0.4,0.5,0.6l3,4.9h-3c-0.5,0-0.9-0.2-1.2-0.6l-2.3-4.1c-0.1-0.2-0.2-0.3-0.4-0.4
			c-0.1-0.1-0.3-0.1-0.6-0.1H-1045.4z M-1045.4-19.3h1.3c0.4,0,0.8-0.1,1.1-0.2c0.3-0.1,0.6-0.3,0.8-0.5c0.2-0.2,0.3-0.4,0.4-0.7
			c0.1-0.3,0.1-0.6,0.1-0.9c0-0.6-0.2-1.1-0.6-1.5c-0.4-0.3-1-0.5-1.9-0.5h-1.3V-19.3z"/>
		<path id="XMLID_240_" d="M-1026.8-26v2.5h-5.8v3.3h4.4v2.4h-4.4v3.4h5.8v2.5h-9.1V-26H-1026.8z"/>
		<path id="XMLID_235_" d="M-1017-23.1c-0.1,0.2-0.2,0.3-0.3,0.3c-0.1,0.1-0.2,0.1-0.4,0.1c-0.1,0-0.3,0-0.5-0.1
			c-0.2-0.1-0.4-0.2-0.6-0.3c-0.2-0.1-0.5-0.2-0.7-0.3c-0.3-0.1-0.6-0.1-0.9-0.1c-0.6,0-1.1,0.1-1.4,0.4c-0.3,0.3-0.5,0.6-0.5,1.1
			c0,0.3,0.1,0.5,0.3,0.7c0.2,0.2,0.4,0.3,0.7,0.5c0.3,0.1,0.6,0.3,1,0.4c0.4,0.1,0.8,0.2,1.2,0.4c0.4,0.1,0.8,0.3,1.2,0.5
			c0.4,0.2,0.7,0.4,1,0.7c0.3,0.3,0.5,0.6,0.7,1.1c0.2,0.4,0.3,0.9,0.3,1.5c0,0.7-0.1,1.3-0.3,1.8c-0.2,0.6-0.6,1.1-1,1.5
			c-0.4,0.4-1,0.8-1.6,1c-0.6,0.2-1.3,0.4-2.1,0.4c-0.4,0-0.9,0-1.3-0.1c-0.5-0.1-0.9-0.2-1.3-0.4c-0.4-0.2-0.8-0.4-1.2-0.6
			s-0.7-0.5-1-0.8l1-1.5c0.1-0.1,0.2-0.2,0.3-0.3c0.1-0.1,0.3-0.1,0.4-0.1c0.2,0,0.4,0.1,0.6,0.2c0.2,0.1,0.4,0.3,0.7,0.4
			c0.2,0.1,0.5,0.3,0.9,0.4c0.3,0.1,0.7,0.2,1.1,0.2c0.6,0,1.1-0.1,1.4-0.4c0.3-0.3,0.5-0.7,0.5-1.2c0-0.3-0.1-0.6-0.3-0.8
			c-0.2-0.2-0.4-0.4-0.7-0.5c-0.3-0.1-0.6-0.3-1-0.4c-0.4-0.1-0.8-0.2-1.2-0.3c-0.4-0.1-0.8-0.3-1.2-0.5c-0.4-0.2-0.7-0.4-1-0.7
			c-0.3-0.3-0.5-0.7-0.7-1.1s-0.3-1-0.3-1.7c0-0.5,0.1-1,0.3-1.5c0.2-0.5,0.5-1,0.9-1.3c0.4-0.4,0.9-0.7,1.5-0.9s1.3-0.4,2.1-0.4
			c0.4,0,0.9,0,1.3,0.1c0.4,0.1,0.8,0.2,1.2,0.3c0.4,0.1,0.7,0.3,1,0.5c0.3,0.2,0.6,0.4,0.9,0.6L-1017-23.1z"/>
		<path id="XMLID_231_" class="st0" d="M-1089.8,11.4h-1.5c-0.2,0-0.3,0-0.4-0.1c-0.1-0.1-0.2-0.2-0.2-0.3l-1.3-3.3h-6.2l-1.3,3.3
			c0,0.1-0.1,0.2-0.2,0.3s-0.2,0.1-0.4,0.1h-1.5l5.5-13.9h1.9L-1089.8,11.4z M-1098.8,6.2h5.2l-2.2-5.6c-0.1-0.3-0.3-0.8-0.4-1.3
			c-0.1,0.3-0.1,0.5-0.2,0.7c-0.1,0.2-0.1,0.4-0.2,0.6L-1098.8,6.2z"/>
		<path id="XMLID_229_" class="st0" d="M-1078.3-2.5v0.7c0,0.2-0.1,0.4-0.2,0.6l-7.9,11h7.9v1.5h-10.4v-0.7c0-0.2,0.1-0.4,0.2-0.6
			l7.9-11.1h-7.7v-1.5H-1078.3z"/>
		<path id="XMLID_227_" class="st0" d="M-1070.5,9.9c0.6,0,1.1-0.1,1.5-0.3c0.5-0.2,0.8-0.5,1.1-0.8c0.3-0.3,0.6-0.8,0.7-1.2
			c0.2-0.5,0.2-1,0.2-1.6v-8.4h1.9v8.4c0,0.8-0.1,1.5-0.4,2.2c-0.3,0.7-0.6,1.3-1.1,1.8c-0.5,0.5-1.1,0.9-1.7,1.2
			c-0.7,0.3-1.5,0.4-2.3,0.4c-0.9,0-1.6-0.1-2.3-0.4c-0.7-0.3-1.3-0.7-1.7-1.2c-0.5-0.5-0.8-1.1-1.1-1.8c-0.3-0.7-0.4-1.4-0.4-2.2
			v-8.4h1.9v8.4c0,0.6,0.1,1.1,0.2,1.6c0.2,0.5,0.4,0.9,0.7,1.2c0.3,0.3,0.7,0.6,1.2,0.8C-1071.6,9.8-1071.1,9.9-1070.5,9.9z"/>
		<path id="XMLID_224_" class="st0" d="M-1059.7,5.6v5.8h-1.9V-2.5h3.9c0.9,0,1.6,0.1,2.3,0.3c0.6,0.2,1.2,0.4,1.6,0.8
			c0.4,0.3,0.7,0.7,0.9,1.2c0.2,0.5,0.3,1,0.3,1.6c0,0.5-0.1,0.9-0.2,1.4c-0.2,0.4-0.4,0.8-0.7,1.1c-0.3,0.3-0.7,0.6-1.1,0.9
			c-0.4,0.2-0.9,0.4-1.4,0.5c0.2,0.1,0.4,0.3,0.6,0.6l4,5.5h-1.7c-0.3,0-0.6-0.1-0.8-0.4l-3.6-5c-0.1-0.2-0.2-0.3-0.4-0.3
			c-0.1-0.1-0.3-0.1-0.6-0.1H-1059.7z M-1059.7,4.2h2c0.5,0,1-0.1,1.4-0.2c0.4-0.1,0.8-0.3,1-0.6c0.3-0.2,0.5-0.5,0.6-0.9
			c0.1-0.3,0.2-0.7,0.2-1.1c0-0.8-0.3-1.4-0.8-1.9c-0.5-0.4-1.4-0.6-2.4-0.6h-2.1V4.2z"/>
		<path id="XMLID_222_" class="st0" d="M-1039.4,10c0.4,0,0.7,0,1-0.1c0.3,0,0.6-0.1,0.9-0.2s0.5-0.2,0.8-0.3
			c0.2-0.1,0.5-0.2,0.7-0.3V6.1h-2.1c-0.1,0-0.2,0-0.3-0.1c-0.1-0.1-0.1-0.2-0.1-0.3V4.7h4.3V10c-0.3,0.3-0.7,0.5-1.1,0.7
			c-0.4,0.2-0.8,0.3-1.2,0.5c-0.4,0.1-0.9,0.2-1.4,0.3c-0.5,0.1-1,0.1-1.6,0.1c-1,0-1.9-0.2-2.8-0.5c-0.8-0.3-1.6-0.8-2.2-1.5
			c-0.6-0.6-1.1-1.4-1.4-2.2c-0.3-0.9-0.5-1.8-0.5-2.9c0-1.1,0.2-2,0.5-2.9s0.8-1.6,1.4-2.2c0.6-0.6,1.4-1.1,2.2-1.4
			c0.9-0.3,1.9-0.5,2.9-0.5c0.5,0,1.1,0,1.5,0.1c0.5,0.1,0.9,0.2,1.3,0.3c0.4,0.2,0.8,0.3,1.1,0.6c0.3,0.2,0.7,0.5,1,0.7l-0.5,0.9
			c-0.1,0.2-0.3,0.3-0.4,0.3c-0.1,0-0.2,0-0.3-0.1c-0.2-0.1-0.3-0.2-0.5-0.3c-0.2-0.1-0.4-0.3-0.7-0.4c-0.3-0.1-0.6-0.2-1-0.3
			c-0.4-0.1-0.9-0.1-1.4-0.1c-0.8,0-1.5,0.1-2.1,0.4c-0.6,0.3-1.2,0.6-1.6,1.1c-0.4,0.5-0.8,1-1,1.7c-0.2,0.7-0.4,1.4-0.4,2.3
			c0,0.9,0.1,1.7,0.4,2.3c0.2,0.7,0.6,1.3,1.1,1.7c0.5,0.5,1,0.8,1.6,1.1C-1040.8,9.9-1040.1,10-1039.4,10z"/>
		<path id="XMLID_220_" class="st0" d="M-1029.5,9.8h6v1.6h-7.9V-2.5h1.9V9.8z"/>
		<path id="XMLID_217_" class="st0" d="M-1009.3,4.4c0,1-0.2,2-0.5,2.9c-0.3,0.9-0.8,1.6-1.4,2.2c-0.6,0.6-1.3,1.1-2.2,1.5
			s-1.8,0.5-2.8,0.5c-1,0-1.9-0.2-2.8-0.5s-1.6-0.8-2.2-1.5c-0.6-0.6-1.1-1.4-1.4-2.2c-0.3-0.9-0.5-1.8-0.5-2.9s0.2-2,0.5-2.9
			c0.3-0.9,0.8-1.6,1.4-2.2s1.3-1.1,2.2-1.5c0.8-0.3,1.8-0.5,2.8-0.5c1,0,2,0.2,2.8,0.5c0.8,0.3,1.6,0.8,2.2,1.5s1.1,1.4,1.4,2.2
			C-1009.5,2.4-1009.3,3.4-1009.3,4.4z M-1011.2,4.4c0-0.9-0.1-1.6-0.3-2.3c-0.2-0.7-0.6-1.3-1-1.7c-0.4-0.5-0.9-0.8-1.5-1.1
			c-0.6-0.3-1.3-0.4-2-0.4c-0.7,0-1.4,0.1-2,0.4c-0.6,0.3-1.1,0.6-1.6,1.1c-0.4,0.5-0.8,1-1,1.7c-0.2,0.7-0.3,1.4-0.3,2.3
			c0,0.9,0.1,1.6,0.3,2.3s0.6,1.2,1,1.7c0.4,0.5,0.9,0.8,1.6,1.1s1.3,0.4,2,0.4c0.7,0,1.4-0.1,2-0.4s1.1-0.6,1.5-1.1
			c0.4-0.5,0.8-1,1-1.7S-1011.2,5.3-1011.2,4.4z"/>
		<path id="XMLID_213_" class="st0" d="M-1006.7,11.4V-2.5h4.4c0.9,0,1.6,0.1,2.2,0.3c0.6,0.2,1.1,0.4,1.5,0.7
			c0.4,0.3,0.7,0.7,0.9,1.1c0.2,0.4,0.3,1,0.3,1.5c0,0.3-0.1,0.7-0.2,1c-0.1,0.3-0.3,0.6-0.5,0.9c-0.2,0.3-0.5,0.5-0.8,0.7
			c-0.3,0.2-0.7,0.4-1.1,0.5c1,0.2,1.8,0.6,2.3,1.1c0.5,0.5,0.8,1.2,0.8,2.1c0,0.6-0.1,1.1-0.3,1.6c-0.2,0.5-0.5,0.9-0.9,1.2
			c-0.4,0.3-0.9,0.6-1.5,0.8c-0.6,0.2-1.3,0.3-2.1,0.3H-1006.7z M-1004.9,3.7h2.5c0.5,0,1-0.1,1.4-0.2c0.4-0.1,0.7-0.3,1-0.5
			c0.3-0.2,0.4-0.5,0.6-0.8c0.1-0.3,0.2-0.6,0.2-1c0-0.8-0.2-1.4-0.7-1.8c-0.5-0.4-1.3-0.6-2.3-0.6h-2.5V3.7z M-1004.9,5v4.8h3
			c0.5,0,1-0.1,1.4-0.2c0.4-0.1,0.7-0.3,0.9-0.5c0.2-0.2,0.4-0.5,0.5-0.8c0.1-0.3,0.2-0.6,0.2-1c0-0.7-0.3-1.3-0.8-1.7
			c-0.5-0.4-1.3-0.6-2.3-0.6H-1004.9z"/>
		<path id="XMLID_210_" class="st0" d="M-982.8,11.4h-1.5c-0.2,0-0.3,0-0.4-0.1c-0.1-0.1-0.2-0.2-0.2-0.3l-1.3-3.3h-6.2l-1.3,3.3
			c0,0.1-0.1,0.2-0.2,0.3s-0.2,0.1-0.4,0.1h-1.5l5.5-13.9h1.9L-982.8,11.4z M-991.9,6.2h5.2l-2.2-5.6c-0.1-0.3-0.3-0.8-0.4-1.3
			c-0.1,0.3-0.1,0.5-0.2,0.7c-0.1,0.2-0.1,0.4-0.2,0.6L-991.9,6.2z"/>
		<path id="XMLID_208_" class="st0" d="M-979.2,9.8h6v1.6h-7.9V-2.5h1.9V9.8z"/>
	</g>
	<g id="XMLID_204_">
		<path id="XMLID_205_" class="st20" d="M-1091.3,87h1.3v-4.2c0-0.1,0-0.3,0-0.4l-1.1,0.9c0,0-0.1,0-0.1,0c0,0-0.1,0-0.1,0
			c0,0-0.1,0-0.1,0c0,0-0.1,0-0.1-0.1l-0.2-0.3l1.8-1.6h0.6V87h1.2v0.6h-3.3V87z"/>
	</g>
	<g id="XMLID_197_">
		<path id="XMLID_202_" d="M-1042.9,87h1.3v-4.2c0-0.1,0-0.3,0-0.4l-1.1,0.9c0,0-0.1,0-0.1,0c0,0-0.1,0-0.1,0c0,0-0.1,0-0.1,0
			c0,0-0.1,0-0.1-0.1l-0.2-0.3l1.8-1.6h0.6V87h1.2v0.6h-3.3V87z"/>
		<path id="XMLID_200_" d="M-1038.7,87.1c0-0.1,0-0.1,0-0.2c0-0.1,0.1-0.1,0.1-0.2c0,0,0.1-0.1,0.2-0.1c0.1,0,0.1,0,0.2,0
			c0.1,0,0.1,0,0.2,0c0.1,0,0.1,0.1,0.2,0.1c0,0,0.1,0.1,0.1,0.2c0,0.1,0,0.1,0,0.2c0,0.1,0,0.1,0,0.2c0,0.1-0.1,0.1-0.1,0.2
			c0,0-0.1,0.1-0.2,0.1c-0.1,0-0.1,0-0.2,0c-0.1,0-0.1,0-0.2,0c-0.1,0-0.1-0.1-0.2-0.1c0,0-0.1-0.1-0.1-0.2
			C-1038.7,87.2-1038.7,87.2-1038.7,87.1z"/>
		<path id="XMLID_198_" d="M-1034.7,81.3c0.3,0,0.5,0,0.7,0.1c0.2,0.1,0.4,0.2,0.6,0.3c0.2,0.1,0.3,0.3,0.4,0.5
			c0.1,0.2,0.1,0.5,0.1,0.7c0,0.2,0,0.4-0.1,0.6c-0.1,0.2-0.2,0.4-0.3,0.6c-0.1,0.2-0.3,0.4-0.4,0.5c-0.2,0.2-0.3,0.3-0.5,0.5
			l-1.6,1.7c0.1,0,0.2-0.1,0.3-0.1c0.1,0,0.2,0,0.3,0h2.1c0.1,0,0.1,0,0.2,0.1c0,0,0.1,0.1,0.1,0.2v0.5h-4.1v-0.3c0-0.1,0-0.1,0-0.2
			c0-0.1,0.1-0.1,0.1-0.2l2-2c0.2-0.2,0.3-0.3,0.4-0.5c0.1-0.2,0.3-0.3,0.3-0.5c0.1-0.2,0.2-0.3,0.2-0.5c0.1-0.2,0.1-0.3,0.1-0.5
			s0-0.3-0.1-0.5c-0.1-0.1-0.1-0.2-0.2-0.3c-0.1-0.1-0.2-0.2-0.4-0.2c-0.1,0-0.3-0.1-0.4-0.1c-0.2,0-0.3,0-0.4,0.1
			c-0.1,0-0.2,0.1-0.4,0.2c-0.1,0.1-0.2,0.2-0.3,0.3c-0.1,0.1-0.1,0.2-0.1,0.4c0,0.1-0.1,0.1-0.1,0.2c0,0-0.1,0.1-0.2,0.1
			c0,0,0,0,0,0c0,0,0,0-0.1,0l-0.4-0.1c0-0.3,0.1-0.5,0.2-0.7c0.1-0.2,0.3-0.4,0.4-0.5c0.2-0.1,0.4-0.3,0.6-0.3
			C-1035.2,81.3-1034.9,81.3-1034.7,81.3z"/>
	</g>
	<g id="XMLID_190_">
		<path id="XMLID_195_" d="M-991.1,87h1.3v-4.2c0-0.1,0-0.3,0-0.4l-1.1,0.9c0,0-0.1,0-0.1,0c0,0-0.1,0-0.1,0c0,0-0.1,0-0.1,0
			c0,0-0.1,0-0.1-0.1l-0.2-0.3l1.8-1.6h0.6V87h1.2v0.6h-3.3V87z"/>
		<path id="XMLID_193_" d="M-986.9,87.1c0-0.1,0-0.1,0-0.2c0-0.1,0.1-0.1,0.1-0.2c0,0,0.1-0.1,0.2-0.1c0.1,0,0.1,0,0.2,0
			s0.1,0,0.2,0c0.1,0,0.1,0.1,0.2,0.1c0,0,0.1,0.1,0.1,0.2c0,0.1,0,0.1,0,0.2c0,0.1,0,0.1,0,0.2c0,0.1-0.1,0.1-0.1,0.2
			c0,0-0.1,0.1-0.2,0.1c-0.1,0-0.1,0-0.2,0s-0.1,0-0.2,0c-0.1,0-0.1-0.1-0.2-0.1c0,0-0.1-0.1-0.1-0.2
			C-986.9,87.2-986.9,87.2-986.9,87.1z"/>
		<path id="XMLID_191_" d="M-982.8,81.3c0.3,0,0.5,0,0.7,0.1c0.2,0.1,0.4,0.2,0.6,0.3c0.2,0.1,0.3,0.3,0.4,0.5
			c0.1,0.2,0.1,0.4,0.1,0.7c0,0.2,0,0.4-0.1,0.5c-0.1,0.2-0.1,0.3-0.2,0.4c-0.1,0.1-0.2,0.2-0.3,0.3c-0.1,0.1-0.3,0.1-0.4,0.2
			c0.4,0.1,0.7,0.3,0.9,0.5c0.2,0.3,0.3,0.6,0.3,0.9c0,0.3-0.1,0.5-0.2,0.8c-0.1,0.2-0.3,0.4-0.4,0.6c-0.2,0.2-0.4,0.3-0.7,0.4
			c-0.2,0.1-0.5,0.1-0.8,0.1c-0.3,0-0.6,0-0.8-0.1c-0.2-0.1-0.4-0.2-0.6-0.3c-0.2-0.1-0.3-0.3-0.4-0.5c-0.1-0.2-0.2-0.4-0.3-0.6
			l0.3-0.1c0.1,0,0.1,0,0.2,0c0.1,0,0.1,0,0.2,0c0,0,0.1,0.1,0.1,0.1c0,0,0,0,0,0c0,0,0,0,0,0c0,0.1,0.1,0.2,0.1,0.3
			c0.1,0.1,0.1,0.2,0.2,0.3c0.1,0.1,0.2,0.2,0.4,0.2c0.1,0.1,0.3,0.1,0.5,0.1c0.2,0,0.4,0,0.6-0.1c0.2-0.1,0.3-0.2,0.4-0.3
			c0.1-0.1,0.2-0.2,0.2-0.4c0.1-0.1,0.1-0.3,0.1-0.4c0-0.2,0-0.3-0.1-0.5c0-0.1-0.1-0.3-0.2-0.4c-0.1-0.1-0.3-0.2-0.5-0.2
			c-0.2-0.1-0.5-0.1-0.8-0.1v-0.6c0.3,0,0.5,0,0.7-0.1c0.2-0.1,0.3-0.1,0.5-0.2c0.1-0.1,0.2-0.2,0.3-0.3c0.1-0.1,0.1-0.3,0.1-0.4
			c0-0.2,0-0.3-0.1-0.5c-0.1-0.1-0.1-0.2-0.2-0.3c-0.1-0.1-0.2-0.2-0.3-0.2c-0.1,0-0.3-0.1-0.4-0.1c-0.2,0-0.3,0-0.4,0.1
			s-0.2,0.1-0.4,0.2c-0.1,0.1-0.2,0.2-0.3,0.3c-0.1,0.1-0.1,0.2-0.2,0.4c0,0.1-0.1,0.1-0.1,0.2c0,0-0.1,0.1-0.2,0.1c0,0,0,0,0,0
			c0,0,0,0-0.1,0l-0.4-0.1c0-0.3,0.1-0.5,0.2-0.7c0.1-0.2,0.3-0.4,0.4-0.5c0.2-0.1,0.4-0.3,0.6-0.3C-983.3,81.3-983,81.3-982.8,81.3
			z"/>
	</g>
	<g id="XMLID_187_">
		<path id="XMLID_188_" class="st20" d="M-1089.7,133.2c0.3,0,0.5,0,0.7,0.1c0.2,0.1,0.4,0.2,0.6,0.3c0.2,0.1,0.3,0.3,0.4,0.5
			c0.1,0.2,0.1,0.5,0.1,0.7c0,0.2,0,0.4-0.1,0.6c-0.1,0.2-0.2,0.4-0.3,0.6c-0.1,0.2-0.3,0.4-0.4,0.5c-0.2,0.2-0.3,0.3-0.5,0.5
			l-1.6,1.7c0.1,0,0.2-0.1,0.3-0.1c0.1,0,0.2,0,0.3,0h2.1c0.1,0,0.1,0,0.2,0.1c0,0,0.1,0.1,0.1,0.2v0.5h-4.1v-0.3c0-0.1,0-0.1,0-0.2
			c0-0.1,0.1-0.1,0.1-0.2l2-2c0.2-0.2,0.3-0.3,0.4-0.5c0.1-0.2,0.3-0.3,0.3-0.5c0.1-0.2,0.2-0.3,0.2-0.5c0.1-0.2,0.1-0.3,0.1-0.5
			c0-0.2,0-0.3-0.1-0.5c-0.1-0.1-0.1-0.2-0.2-0.3c-0.1-0.1-0.2-0.2-0.4-0.2s-0.3-0.1-0.4-0.1c-0.2,0-0.3,0-0.4,0.1
			c-0.1,0-0.2,0.1-0.4,0.2c-0.1,0.1-0.2,0.2-0.3,0.3c-0.1,0.1-0.1,0.2-0.1,0.4c0,0.1-0.1,0.1-0.1,0.2c0,0-0.1,0.1-0.2,0.1
			c0,0,0,0,0,0c0,0,0,0-0.1,0l-0.4-0.1c0-0.3,0.1-0.5,0.2-0.7c0.1-0.2,0.3-0.4,0.4-0.5c0.2-0.1,0.4-0.3,0.6-0.3
			C-1090.2,133.2-1090,133.2-1089.7,133.2z"/>
	</g>
	<g id="XMLID_184_">
		<path id="XMLID_185_" class="st20" d="M-1089.7,185.6c0.3,0,0.5,0,0.7,0.1c0.2,0.1,0.4,0.2,0.6,0.3c0.2,0.1,0.3,0.3,0.4,0.5
			c0.1,0.2,0.1,0.4,0.1,0.7c0,0.2,0,0.4-0.1,0.5c-0.1,0.2-0.1,0.3-0.2,0.4c-0.1,0.1-0.2,0.2-0.3,0.3c-0.1,0.1-0.3,0.1-0.4,0.2
			c0.4,0.1,0.7,0.3,0.9,0.5c0.2,0.3,0.3,0.6,0.3,0.9c0,0.3-0.1,0.5-0.2,0.8c-0.1,0.2-0.3,0.4-0.4,0.6c-0.2,0.2-0.4,0.3-0.7,0.4
			c-0.2,0.1-0.5,0.1-0.8,0.1c-0.3,0-0.6,0-0.8-0.1c-0.2-0.1-0.4-0.2-0.6-0.3s-0.3-0.3-0.4-0.5c-0.1-0.2-0.2-0.4-0.3-0.6l0.3-0.1
			c0.1,0,0.1,0,0.2,0c0.1,0,0.1,0,0.2,0c0,0,0.1,0.1,0.1,0.1c0,0,0,0,0,0c0,0,0,0,0,0c0,0.1,0.1,0.2,0.1,0.3
			c0.1,0.1,0.1,0.2,0.2,0.3c0.1,0.1,0.2,0.2,0.4,0.2c0.1,0.1,0.3,0.1,0.5,0.1c0.2,0,0.4,0,0.6-0.1c0.2-0.1,0.3-0.2,0.4-0.3
			s0.2-0.2,0.2-0.4c0.1-0.1,0.1-0.3,0.1-0.4c0-0.2,0-0.3-0.1-0.5c0-0.1-0.1-0.3-0.2-0.4c-0.1-0.1-0.3-0.2-0.5-0.2
			c-0.2-0.1-0.5-0.1-0.8-0.1v-0.6c0.3,0,0.5,0,0.7-0.1c0.2-0.1,0.3-0.1,0.5-0.2c0.1-0.1,0.2-0.2,0.3-0.3c0.1-0.1,0.1-0.3,0.1-0.4
			c0-0.2,0-0.3-0.1-0.5c-0.1-0.1-0.1-0.2-0.2-0.3c-0.1-0.1-0.2-0.2-0.3-0.2c-0.1,0-0.3-0.1-0.4-0.1c-0.2,0-0.3,0-0.4,0.1
			c-0.1,0-0.2,0.1-0.4,0.2c-0.1,0.1-0.2,0.2-0.3,0.3c-0.1,0.1-0.1,0.2-0.2,0.4c0,0.1-0.1,0.1-0.1,0.2s-0.1,0.1-0.2,0.1c0,0,0,0,0,0
			c0,0,0,0-0.1,0l-0.4-0.1c0-0.3,0.1-0.5,0.2-0.7c0.1-0.2,0.3-0.4,0.4-0.5c0.2-0.1,0.4-0.3,0.6-0.3
			C-1090.2,185.6-1089.9,185.6-1089.7,185.6z"/>
	</g>
	<g id="XMLID_180_">
		<path id="XMLID_181_" class="st20" d="M-1088.4,241.2h0.9v0.4c0,0,0,0.1,0,0.1c0,0-0.1,0-0.1,0h-0.8v1.6h-0.7v-1.6h-2.7
			c-0.1,0-0.1,0-0.1,0c0,0-0.1-0.1-0.1-0.1l-0.1-0.4l3-4h0.7V241.2z M-1089.1,238.7c0-0.1,0-0.2,0-0.2c0-0.1,0-0.2,0-0.3l-2.3,3.1
			h2.2V238.7z"/>
	</g>
	<polygon id="XMLID_179_" class="st20" points="-931.3,81.5 -935.2,85.3 -936.8,83.7 -937.9,84.8 -935.2,87.5 -934.1,86.4 
		-930.3,82.6 	"/>
	<polygon id="XMLID_178_" class="st20" points="-879.5,81.5 -883.3,85.3 -885,83.7 -886,84.8 -883.3,87.5 -882.3,86.4 -878.4,82.6 	
		"/>
	<polygon id="XMLID_177_" class="st20" points="-931,186.2 -932.1,185.2 -934,187.1 -936,185.2 -937,186.2 -935.1,188.2 -937,190.1 
		-936,191.1 -934,189.2 -932.1,191.1 -931,190.1 -933,188.2 	"/>
	<polygon id="XMLID_176_" class="st20" points="-879.2,186.2 -880.3,185.2 -882.2,187.1 -884.1,185.2 -885.2,186.2 -883.3,188.2 
		-885.2,190.1 -884.1,191.1 -882.2,189.2 -880.3,191.1 -879.2,190.1 -881.1,188.2 	"/>
	<path id="XMLID_173_" class="st20" d="M-934.3,133.2c-1.8,0-3.2,1.4-3.2,3.2c0,1.8,1.4,3.2,3.2,3.2s3.2-1.4,3.2-3.2
		C-931.1,134.6-932.5,133.2-934.3,133.2z M-932.4,136.4c0,1-0.8,1.9-1.9,1.9c-1,0-1.9-0.8-1.9-1.9s0.8-1.9,1.9-1.9
		C-933.3,134.5-932.4,135.3-932.4,136.4z"/>
	<path id="XMLID_170_" class="st20" d="M-882.5,133.2c-1.8,0-3.2,1.4-3.2,3.2c0,1.8,1.4,3.2,3.2,3.2s3.2-1.4,3.2-3.2
		C-879.3,134.6-880.7,133.2-882.5,133.2z M-880.6,136.4c0,1-0.8,1.9-1.9,1.9c-1,0-1.9-0.8-1.9-1.9s0.8-1.9,1.9-1.9
		C-881.4,134.5-880.6,135.3-880.6,136.4z"/>
	<g id="XMLID_167_">
		<path id="XMLID_168_" class="st20" d="M-465.3,81.2v1.2h-1.8v5.1h-1.5v-5.1h-1.8v-1.2H-465.3z"/>
	</g>
	<rect id="XMLID_166_" x="-1102.8" y="45.8" class="st21" width="129.6" height="10.1"/>
	
		<linearGradient id="XMLID_113_" gradientUnits="userSpaceOnUse" x1="-843.5748" y1="-16719.3359" x2="-506.6441" y2="-16719.3359" gradientTransform="matrix(1 0 0 -1 0 -16668.4688)">
		<stop  offset="0" style="stop-color:#00609C"/>
		<stop  offset="1" style="stop-color:#004987"/>
	</linearGradient>
	<rect id="XMLID_165_" x="-843.6" y="45.8" class="st22" width="336.9" height="10.1"/>
	<rect id="XMLID_164_" x="-480.7" y="45.7" class="st16" width="25.9" height="10.1"/>
	<rect id="XMLID_163_" x="-947.2" y="45.8" class="st23" width="77.8" height="10.1"/>
	<text id="XMLID_162_" transform="matrix(1 0 0 1 -1106.2709 113.2647)" style="font-family:'Lato-Regular'; font-size:7.4306px;">PRIMARY</text>
	<text id="XMLID_161_" transform="matrix(1 0 0 1 -1112.2933 165.2793)" style="font-family:'Lato-Regular'; font-size:7.4306px;">SECONDARY</text>
	<text id="XMLID_160_" transform="matrix(1 0 0 1 -949.0629 165.2793)" style="font-family:'Lato-Regular'; font-size:7.4306px;">ACCENT</text>
	<text id="XMLID_159_" transform="matrix(1 0 0 1 -948.5243 113.2647)" style="font-family:'Lato-Regular'; font-size:7.4306px;">ACCEPT</text>
	<text id="XMLID_158_" transform="matrix(1 0 0 1 -957.5521 217.0458)" style="font-family:'Lato-Regular'; font-size:7.4306px;">ERROR DARK</text>
	<text id="XMLID_157_" transform="matrix(1 0 0 1 -900.4266 165.2793)" style="font-family:'Lato-Regular'; font-size:7.4306px;">WARNING</text>
	<text id="XMLID_156_" transform="matrix(1 0 0 1 -899.8876 113.2647)" style="font-family:'Lato-Regular'; font-size:7.4306px;">ACCEPT L.</text>
	<text id="XMLID_155_" transform="matrix(1 0 0 1 -842.702 113.2647)" style="font-family:'Lato-Regular'; font-size:7.4306px;">WHITE</text>
	<text id="XMLID_154_" transform="matrix(1 0 0 1 -804.5946 113.2647)" style="font-family:'Lato-Regular'; font-size:7.4306px;">GRAY LIGHTER</text>
	<text id="XMLID_153_" transform="matrix(1 0 0 1 -748.4227 113.2647)" style="font-family:'Lato-Regular'; font-size:7.4306px;">GRAY LIGHT</text>
	<text id="XMLID_152_" transform="matrix(1 0 0 1 -684.8778 113.2647)"><tspan x="0" y="0" style="font-family:'Lato-Regular'; font-size:7.4306px;">GRAY</tspan><tspan x="-15.8" y="8.9" style="font-family:'Lato-Regular'; font-size:7.4306px;">(SOMBREADO)</tspan><tspan x="-16.7" y="17.8" style="font-family:'Lato-Regular'; font-size:7.4306px;">Opacidad: 100%</tspan><tspan x="-0.9" y="26.8" style="font-family:'Lato-Regular'; font-size:7.4306px;">X: 0 px</tspan><tspan x="-0.8" y="35.7" style="font-family:'Lato-Regular'; font-size:7.4306px;">Y: 2 px</tspan><tspan x="-22.9" y="44.6" style="font-family:'Lato-Regular'; font-size:7.4306px;">DIFUMINADO: 4 px</tspan></text>
	<text id="XMLID_151_" transform="matrix(1 0 0 1 -644.2201 113.2647)" style="font-family:'Lato-Regular'; font-size:7.4306px;">GRAY DARK</text>
	<text id="XMLID_150_" transform="matrix(1 0 0 1 -596.7213 113.2647)" style="font-family:'Lato-Regular'; font-size:7.4306px;">GRAY DARKER</text>
	<text id="XMLID_149_" transform="matrix(1 0 0 1 -531.5189 113.2647)" style="font-family:'Lato-Regular'; font-size:7.4306px;">BLACK</text>
	<text id="XMLID_148_" transform="matrix(1 0 0 1 -484.3687 113.2647)" style="font-family:'Lato-Regular'; font-size:7.4306px;">OVERLAY</text>
	<text id="XMLID_147_" transform="matrix(1 0 0 1 -894.538 217.0458)" style="font-family:'Lato-Regular'; font-size:7.4306px;">ERROR</text>
	<text id="XMLID_146_" transform="matrix(1 0 0 1 -1107.1254 217.0458)" style="font-family:'Lato-Regular'; font-size:7.4306px;">TERTIARY</text>
	<text id="XMLID_145_" transform="matrix(1 0 0 1 -1102.8827 269.0597)"><tspan x="0" y="0" style="font-family:'Lato-Regular'; font-size:7.4306px;">ACTIVE</tspan><tspan x="-13.4" y="8.9" style="font-family:'Lato-Regular'; font-size:7.4306px;">PLACEHOLDER</tspan></text>
	<text id="XMLID_144_" transform="matrix(1 0 0 1 -1054.6532 113.2647)"><tspan x="0" y="0" style="font-family:'Lato-Regular'; font-size:7.4306px;">PRIMARY</tspan><tspan x="5.7" y="8.9" style="font-family:'Lato-Regular'; font-size:7.4306px;">LIGHT</tspan></text>
	<text id="XMLID_143_" transform="matrix(1 0 0 1 -1002.8398 113.2647)"><tspan x="0" y="0" style="font-family:'Lato-Regular'; font-size:7.4306px;">PRIMARY</tspan><tspan x="1.1" y="8.9" style="font-family:'Lato-Regular'; font-size:7.4306px;">LIGHTER</tspan></text>
</g>
<text id="XMLID_447_" transform="matrix(0 -1 1 0 -1168.6863 223.5258)" style="font-family:'Manrope-ExtraBold'; font-size:54.9469px;">AHORA</text>
<g id="XMLID_5_">
	<path id="XMLID_6_" class="st3" d="M1617.5,117.8c0.4-0.2,0.9-0.4,1.3-0.6c-0.1,0-0.2,0-0.3,0c-1.4,0-2.9,0-4.3,0c0,0-0.1,0-0.1,0
		c-0.5,0.9-0.9,1.9-1.4,2.8C1614.3,119.3,1615.9,118.5,1617.5,117.8z"/>
	<path id="XMLID_7_" class="st1" d="M1614,116.7c0.3,0,0.5,0,0.8,0c1.3,0,2.7,0,4,0c0,0-0.1,0-0.1-0.1c-2-0.9-4-1.8-6-2.7
		C1613.1,114.8,1613.6,115.8,1614,116.7z"/>
	<path id="XMLID_8_" class="st2" d="M1613,118.4c0.2-0.5,0.5-1,0.7-1.4c-0.2-0.4-0.4-0.9-0.6-1.3c-0.5-0.2-0.9-0.4-1.4-0.6
		c0.3,0.6,0.6,1.3,0.9,1.9c-0.3,0.7-0.6,1.4-0.9,2c0.3-0.1,0.6-0.3,0.9-0.4C1612.6,118.5,1612.8,118.5,1613,118.4z"/>
	<path id="XMLID_9_" class="st1" d="M1594,115.1c-0.1,0.7-0.2,1.5-0.3,2.2c0,0.2-0.1,0.5-0.3,0.7c-0.2,0.2-0.4,0.2-0.6,0.2
		c-0.1,0-0.3-0.1-0.3-0.3c-0.1-0.2-0.1-0.4-0.1-0.6c0.1-0.7,0.2-1.5,0.3-2.2c-0.3,0-0.6,0-0.8,0c-0.1,0.6-0.2,1.3-0.2,1.9
		c0,0.2,0,0.3-0.1,0.5c0,0.2,0,0.4,0.1,0.6c0.1,0.2,0.3,0.4,0.5,0.5c0.3,0.1,0.6,0.2,0.8,0.1c0.4,0,0.8-0.2,1.1-0.5
		c0.2-0.2,0.3-0.5,0.4-0.8c0-0.2,0.1-0.3,0.1-0.5c0.1-0.6,0.2-1.3,0.2-1.9C1594.6,115.1,1594.3,115.1,1594,115.1z"/>
	<path id="XMLID_10_" class="st1" d="M1597.1,115.2c-0.3-0.1-0.6-0.1-0.9-0.1c-0.3,0-0.6,0-0.9,0c-0.2,1.2-0.3,2.5-0.5,3.7
		c0.3,0,0.6,0,0.8,0c0.1-0.5,0.1-0.9,0.2-1.4c0.1,0,0.2,0,0.3,0c0.1,0,0.1,0.1,0.1,0.1c0.1,0.3,0.2,0.7,0.4,1c0,0.1,0,0.1,0.1,0.2
		c0.1,0.1,0.1,0.1,0.2,0.1c0.2,0,0.5,0,0.7,0c-0.2-0.4-0.4-0.9-0.5-1.3c0-0.1-0.1-0.2-0.3-0.3c0.3-0.1,0.6-0.4,0.7-0.7
		c0.1-0.3,0.1-0.6,0-0.9C1597.5,115.4,1597.3,115.3,1597.1,115.2z M1596.8,116.5c-0.1,0.2-0.3,0.3-0.4,0.3c-0.1,0-0.3,0-0.4,0
		c0-0.4,0.1-0.8,0.1-1.1c0.2,0,0.4,0,0.6,0.1c0.1,0.1,0.2,0.2,0.2,0.3C1596.8,116.2,1596.8,116.4,1596.8,116.5z"/>
	<path id="XMLID_13_" class="st1" d="M1586.3,118.6c0.1-0.2,0.2-0.4,0.3-0.6c0.4,0,0.8,0,1.3,0c0,0.2,0.1,0.4,0.1,0.7
		c0,0.1,0.1,0.2,0.2,0.2c0.2,0,0.3,0,0.5,0c0.9,0,1.8,0,2.6,0c0-0.2,0.1-0.4,0.1-0.6c-0.5,0-1,0-1.6,0c0.6-0.9,1.3-1.8,1.9-2.6
		c0-0.1,0.1-0.1,0.1-0.2c0-0.1,0-0.2,0-0.3c-0.9,0-1.7,0-2.6,0c0,0.2-0.1,0.4-0.1,0.6c0.5,0,1,0,1.5,0c-0.6,0.9-1.3,1.8-1.9,2.6
		c-0.3-1.1-0.5-2.2-0.8-3.3c-0.3,0-0.6,0-0.9,0c-0.6,1.2-1.2,2.5-1.8,3.7c0.2,0,0.4,0,0.7,0C1586.1,118.8,1586.2,118.7,1586.3,118.6
		z M1587.2,116.3c0.1-0.2,0.2-0.4,0.2-0.5c0,0.2,0.1,0.3,0.1,0.5c0.1,0.4,0.1,0.7,0.2,1.1c-0.3,0-0.6,0-0.9,0
		C1586.9,117,1587.1,116.7,1587.2,116.3z"/>
	<path id="XMLID_17_" class="st2" d="M1599.5,118.8c0.4,0,0.9,0,1.2-0.2c0.1,0,0.1-0.1,0.1-0.2c0.1-0.4,0.2-0.8,0.2-1.2
		c0-0.1,0-0.1,0-0.2c0,0-0.1,0-0.1,0c-0.3,0-0.7,0-1,0c0,0-0.1,0-0.1,0.1c0,0.1,0,0.2,0,0.2c0,0,0,0.1,0.1,0.1c0.3,0,0.5,0,0.8,0
		c-0.1,0.3-0.1,0.7-0.2,1c-0.3,0.1-0.6,0.2-0.8,0.1c-0.2,0-0.5-0.1-0.6-0.3c-0.2-0.2-0.2-0.5-0.2-0.8c0-0.4,0.2-0.8,0.5-1.1
		c0.2-0.2,0.5-0.4,0.9-0.5c0.3,0,0.6,0,0.9,0.2c0.1,0,0.1,0.1,0.2,0.1c0.1,0,0.1-0.1,0.1-0.1c0-0.1,0.1-0.2,0-0.3
		c-0.1-0.1-0.3-0.2-0.4-0.2c-0.7-0.2-1.5,0-2,0.5c-0.4,0.4-0.7,1.1-0.7,1.7c0,0.3,0.1,0.6,0.3,0.9
		C1598.8,118.6,1599.1,118.7,1599.5,118.8z"/>
	<path id="XMLID_18_" class="st2" d="M1604.3,116.4c-0.2-0.1-0.5-0.2-0.7-0.2c-0.3,0-0.5,0.1-0.7,0.3c-0.2,0.1-0.3,0.3-0.4,0.5
		c-0.1,0.3-0.2,0.7-0.2,1c0,0.2,0.1,0.4,0.2,0.6c0.2,0.2,0.4,0.2,0.7,0.2c0.3,0,0.5-0.1,0.7-0.2c0.3-0.2,0.5-0.6,0.6-1
		c0.1-0.3,0.1-0.5,0-0.8C1604.6,116.6,1604.5,116.4,1604.3,116.4z M1603.9,118.1c-0.1,0.2-0.3,0.3-0.6,0.4c-0.2,0-0.3,0-0.5-0.1
		c-0.1-0.1-0.2-0.3-0.2-0.4c0-0.3,0.1-0.6,0.2-0.9c0.1-0.2,0.3-0.3,0.5-0.4c0.2,0,0.4,0,0.6,0.1c0.1,0.1,0.2,0.3,0.2,0.4
		C1604.2,117.4,1604.1,117.8,1603.9,118.1z"/>
	<path id="XMLID_21_" class="st2" d="M1602.4,115.1c-0.1-0.1-0.2,0-0.3,0c0,0-0.1,0-0.1,0.1c-0.2,1.2-0.5,2.3-0.7,3.5
		c0,0,0,0.1,0.1,0.1c0.1,0,0.2,0,0.3,0c0,0,0.1,0,0.1-0.1c0.2-1.1,0.4-2.2,0.7-3.4C1602.4,115.2,1602.4,115.2,1602.4,115.1z"/>
	<path id="XMLID_22_" class="st2" d="M1609.5,116.2c-0.1,0-0.2,0-0.3,0.1c0,0.1,0,0.2-0.1,0.3c-0.1-0.1-0.2-0.2-0.3-0.3
		c-0.3-0.1-0.7-0.1-1,0.1c-0.3,0.2-0.4,0.5-0.5,0.9c-0.1,0.3-0.1,0.7-0.1,1c0,0.2,0.1,0.3,0.3,0.4c0.2,0.1,0.4,0.1,0.6,0.1
		c0.3-0.1,0.6-0.3,0.7-0.5c0,0.1,0,0.3-0.1,0.4c0,0,0,0.1,0,0.1c0.1,0,0.2,0,0.2,0c0.1,0,0.1,0,0.1-0.1c0.2-0.8,0.3-1.6,0.5-2.4
		C1609.7,116.2,1609.6,116.2,1609.5,116.2z M1609,117.5c-0.1,0.3-0.2,0.6-0.4,0.7c-0.1,0.1-0.3,0.2-0.5,0.2c-0.1,0-0.2-0.1-0.2-0.2
		c-0.1-0.1-0.1-0.2-0.1-0.4c0-0.3,0.1-0.6,0.2-0.8c0.1-0.2,0.2-0.3,0.3-0.4c0.1-0.1,0.3-0.1,0.4-0.1c0.2,0,0.3,0.2,0.4,0.3
		C1609.1,117.1,1609,117.3,1609,117.5z"/>
	<path id="XMLID_68_" class="st2" d="M1606.9,116.3c-0.1-0.1-0.3-0.2-0.4-0.2c-0.2,0-0.4,0.1-0.6,0.2c-0.1,0.1-0.3,0.2-0.4,0.4
		c0.1-0.4,0.2-0.8,0.3-1.3c0-0.1,0.1-0.2,0.1-0.4c-0.1,0-0.2,0-0.3,0c-0.1,0-0.1,0-0.1,0.1c0,0.1,0,0.2-0.1,0.3
		c-0.2,1.1-0.4,2.1-0.6,3.2c0,0,0,0.1,0,0.1c0.1,0,0.2,0,0.2,0c0,0,0.1,0,0.1-0.1c0-0.1,0-0.2,0-0.2c0.2,0.2,0.4,0.3,0.7,0.3
		c0.4,0,0.7-0.2,0.9-0.5c0.2-0.2,0.3-0.5,0.3-0.8c0-0.2,0.1-0.5,0-0.8C1607.1,116.6,1607,116.5,1606.9,116.3z M1606.6,117.5
		c-0.1,0.3-0.2,0.6-0.4,0.8c-0.1,0.1-0.3,0.2-0.5,0.2c-0.2,0-0.4-0.2-0.5-0.4c0.1-0.3,0.1-0.5,0.2-0.8c0.1-0.2,0.2-0.4,0.4-0.6
		c0.1-0.1,0.3-0.2,0.5-0.1c0.1,0,0.2,0.1,0.2,0.3C1606.7,117,1606.7,117.3,1606.6,117.5z"/>
	<path id="XMLID_71_" class="st2" d="M1610.8,115.1c-0.1,0-0.2,0-0.3,0c0,0-0.1,0-0.1,0.1c-0.2,1.2-0.5,2.3-0.7,3.5c0,0,0,0.1,0,0.1
		c0.1,0,0.2,0,0.3,0c0.1,0,0.1,0,0.1-0.1c0.2-1.1,0.5-2.3,0.7-3.4C1610.9,115.2,1610.9,115.1,1610.8,115.1z"/>
</g>
<g id="XMLID_73_">
	<path id="XMLID_102_" class="st24" d="M152.6,19.9c-2.6-1.9-5.9-1.2-8.8-1.4c-0.7,5.1-1.3,10.2-1.9,15.3c3-0.1,6.2,0.5,9-1.1
		c2.3-1.2,3.5-3.7,3.8-6.1C155,24.3,154.7,21.4,152.6,19.9z"/>
	<path id="XMLID_101_" class="st24" d="M32.1,41.2C31,34.1,29.7,27,28.5,19.9c-3.1,7.1-6,14.2-8.9,21.3
		C23.7,41.3,27.9,41.2,32.1,41.2z"/>
	<path id="XMLID_100_" class="st25" d="M215.8,58c1,0.4,2.1,0.3,3.2,0.3c0.8-0.1,2-0.2,2.1-1.2c2.9-14.6,5.8-29.2,8.7-43.8
		c0-0.5,0.5-1.5-0.4-1.6c-1.4-0.3-2.9-0.3-4.3,0c-0.6,0.1-0.7,0.8-0.9,1.3c-2.9,14.6-5.8,29.1-8.7,43.7
		C215.6,57,215.2,57.7,215.8,58z"/>
	<path id="XMLID_99_" class="st25" d="M185.3,56.8c4.8,2.2,10.4,2.4,15.6,1.3c2.5-0.6,5.1-1.3,7.4-2.6c0.9-0.5,1.2-1.6,1.3-2.5
		c1.1-5.5,2.2-11,3.3-16.5c0.3-0.9-0.3-2.1-1.4-2.1c-4.3-0.1-8.7,0-13,0c-0.6,0-1.5-0.1-1.9,0.6c-0.7,1.2-1,2.7-0.7,4.1
		c3.6,0.2,7.1,0,10.7,0.1c-0.8,4.2-1.7,8.4-2.5,12.6c-3.1,1.6-6.6,2.2-10,1.9c-2.8-0.2-5.7-1.2-7.7-3.3c-2-2-2.9-4.9-3.1-7.7
		c-0.3-5.7,1.5-11.5,5-16.1c2.5-3.3,6.1-5.9,10.2-6.9c4.4-1.1,9.3-0.6,13.3,1.7c1.2,0.6,2.2,1.6,3.5,1.8c0.8-1.4,1.6-3.2,0.8-4.8
		c-2-2-4.7-2.9-7.4-3.6c-6.8-1.6-14.3,0-20,4c-4.5,3.2-7.8,7.9-9.7,13.1c-1.6,4.7-2.3,9.8-1.4,14.7
		C178.4,50.9,181.2,54.9,185.3,56.8z"/>
	<path id="XMLID_95_" class="st26" d="M8.8,60.3c1.7,0,3.3-1.2,4-2.8c1.2-2.9,2.4-5.8,3.6-8.7c5.7,0,11.4,0,17,0
		c0.5,3,1,5.9,1.5,8.9c0.3,1.5,1.6,2.6,3.1,2.5c13.9,0,27.8,0,41.7,0c0.4-2.9,0.7-5.7,1.1-8.6c-7.1,0-14.1,0-21.2,0
		c8.5-11.9,17-23.9,25.4-35.8c1.3-1.6,1.2-3.7,1.5-5.6c-11.5,0-23.1,0-34.6,0c-0.3,2.9-0.7,5.7-1.1,8.6c6.7,0,13.3,0,20,0
		c-8.4,11.8-16.8,23.7-25.3,35.5C42.1,39.7,38.8,25,35.4,10.2c-3.8,0-7.6,0-11.5,0C15.9,26.9,8,43.6,0,60.3
		C3,60.3,5.9,60.3,8.8,60.3z M28.5,19.9c1.2,7.1,2.5,14.2,3.7,21.3c-4.2,0-8.4,0-12.6,0C22.5,34.1,25.4,27,28.5,19.9z"/>
	<path id="XMLID_94_" class="st26" d="M86.9,52.8c2.1,3.9,6.1,6.6,10.3,7.5c6,1.3,12.5,0.3,17.6-3.1c4.4-2.9,7.5-7.5,9-12.5
		c0.7-2.3,1-4.8,1.3-7.2c1.1-9.1,2.2-18.1,3.4-27.2c-3.7-0.1-7.5,0-11.2,0c-1.3,10.1-2.5,20.2-3.7,30.2c-0.4,3-1.4,6-3.5,8.2
		c-1.9,2.1-4.7,3.1-7.5,2.8c-2-0.1-4-1.1-5.1-2.8c-1.6-2.4-1.8-5.5-1.6-8.3c1.2-10,2.5-20.1,3.7-30.1c-3.7,0-7.4,0-11.2,0
		c-1.2,10.1-2.4,20.2-3.6,30.3C84.3,44.7,84.8,49.1,86.9,52.8z"/>
	<path id="XMLID_93_" class="st25" d="M357.5,62.4c2-1,4.2-1.7,6-2.8c3.1-6.3,6.1-12.6,9.1-19c-2.8-5.6-5.4-11.3-8.3-16.8
		c-6.1-2.8-12.1-5.6-18.3-8.3c4,8.4,8.1,16.8,12.1,25.2c-4,9-8.2,17.9-12.1,26.9C349.9,65.9,353.6,64.1,357.5,62.4z"/>
	<path id="XMLID_92_" class="st26" d="M387.8,37.2c17.7,0,35.3,0.1,53-0.1c-0.6-0.3-1.3-0.6-1.9-0.9C412.4,24.1,386,12,359.5,0
		c6,12.4,12.1,24.7,18.1,37.1C381,37.2,384.4,37.1,387.8,37.2z"/>
	<path id="XMLID_91_" class="st3" d="M436.5,43.2c-19.1,0-38.2,0-57.3,0c-0.4,0.1-1.2-0.2-1.3,0.4c-6.1,12.3-12.3,24.6-18.3,37
		c21.4-9.7,42.7-19.6,64.1-29.4c5.7-2.7,11.4-5.1,17-7.9C439.3,43.1,437.9,43.2,436.5,43.2z"/>
	<path id="XMLID_88_" class="st25" d="M228.5,49.7c0.3,2.8,1.8,5.7,4.3,7.2c2.9,1.7,6.4,1.9,9.6,1.7c5.1-0.4,9.7-3.6,12.3-7.9
		c2.7-4.3,3.8-9.4,3.8-14.3c-0.1-3-1-6.3-3.4-8.3c-2.9-2.4-6.9-2.8-10.5-2.5c-2.3,0.2-4.5,0.9-6.5,2c-4.3,2.4-7.1,6.9-8.6,11.5
		C228.5,42.6,228.1,46.2,228.5,49.7z M234.2,45.7c0.2-3.7,1.1-7.4,3.2-10.6c1.4-2.1,3.5-3.9,5.9-4.6c2.2-0.5,4.6-0.5,6.6,0.6
		c1.5,0.8,2.4,2.4,2.6,4.1c0.4,2.8,0.1,5.6-0.6,8.3c-0.9,3.5-2.6,7-5.6,9.1c-2.3,1.6-5.2,2-7.9,1.3c-1.5-0.4-2.8-1.4-3.4-2.7
		C234.2,49.4,234.1,47.5,234.2,45.7z"/>
	<path id="XMLID_87_" class="st25" d="M335.6,11.3c-1.1,0.1-3-0.2-3.2,1.3c-2.3,11.6-4.6,23.2-6.9,34.8c-0.6,3.5-1.5,6.9-2,10.5
		c1.5,0.4,3,0.5,4.5,0.2c0.6-0.1,1-0.6,1.1-1.2c2.9-14.8,5.9-29.5,8.8-44.3C338.2,11.3,336.4,11.4,335.6,11.3z"/>
	<path id="XMLID_84_" class="st25" d="M303.7,58.4c3.7-0.9,7.1-3.3,9.1-6.6c-0.3,2-0.9,4-1.1,6.1c1.4,0.5,2.9,0.5,4.3,0.1
		c0.5-0.2,0.7-0.7,0.8-1.2c1.9-9.8,3.9-19.6,5.9-29.4c0-0.4,0.2-1.1-0.4-1.2c-1.4-0.3-3.1-0.4-4.3,0.4c-0.5,1.1-0.5,2.3-0.8,3.4
		c-1.1-1.1-2.1-2.2-3.5-3c-2.4-1.5-5.4-1.7-8.1-1.2c-3.9,0.7-7.2,3.6-9.2,6.9c-2.8,4.5-4.1,9.8-4.2,15c0,3.1,0.4,6.4,2.7,8.7
		C297.1,58.7,300.6,59.1,303.7,58.4z M297.9,46.7c0.2-3.9,1.1-7.8,2.9-11.2c1.2-2.2,3-4.3,5.5-4.9c3.5-0.9,7.1,1.2,8.9,4.1
		c0.4,0.4,0.1,0.9,0.1,1.4c-0.7,3.3-1.1,6.7-2.7,9.7c-1.6,3.3-4,6.4-7.5,7.8c-1.8,0.7-4.3,0.9-5.8-0.7
		C297.9,51.2,297.8,48.8,297.9,46.7z"/>
	<path id="XMLID_81_" class="st25" d="M264.2,57.8c0.7-1,0.6-2.3,0.9-3.5c1,0.9,1.9,2,3,2.7c2.3,1.6,5.3,1.8,8,1.5
		c4-0.6,7.5-3.3,9.6-6.7c2.8-4.6,4.3-10,4.4-15.4c-0.1-2.9-0.6-6.1-2.6-8.3c-2.2-2.5-5.9-3-9-2.2c-3.6,1-6.8,3.3-8.9,6.5
		c1.9-6.2,2.8-12.7,4.2-19c0-0.6,0.5-1.4-0.2-1.7c-1.4-0.4-2.9-0.4-4.2-0.1c-0.7,0.1-0.9,0.8-1,1.4c-2.9,14.5-5.7,28.9-8.6,43.4
		c-0.1,0.5-0.2,1.1-0.2,1.7C261.1,58.3,262.8,58.5,264.2,57.8z M269.1,39.6c1.8-3.9,4.6-7.8,8.9-9.1c1.6-0.4,3.6-0.3,4.7,1
		c1.6,1.8,1.7,4.4,1.6,6.6c-0.3,4-1.3,8.1-3.4,11.5c-1.5,2.3-3.9,4.4-6.8,4.3c-3.1,0.1-5.8-1.9-7.4-4.4
		C267.3,46.2,267.8,42.8,269.1,39.6z"/>
	<path id="XMLID_78_" class="st26" d="M161.1,13.4c-3.5-2.4-7.9-3.1-12.1-3.1c-5.2,0-10.3,0-15.5,0c-2,16.7-4.1,33.3-6.1,50
		c3.7,0,7.4,0,11.1,0c0.7-6.2,1.5-12.5,2.3-18.7c1.3,0,2.5-0.1,3.8,0.2c1.2,0.3,1.6,1.5,2,2.5c1.7,4.6,3.3,9.2,5,13.7
		c0.5,1.5,2,2.3,3.5,2.3c3.5,0,6.9,0,10.4,0c-2.4-5.8-4.8-11.6-7.2-17.4c-0.6-1.6-1.9-2.7-3.3-3.7c2.2-1,4.2-2.2,5.9-3.8
		c4-3.9,5.7-9.8,4.6-15.2C165,17.4,163.4,14.9,161.1,13.4z M154.6,26.6c-0.3,2.5-1.6,4.9-3.8,6.1c-2.7,1.6-6,1-9,1.1
		c0.6-5.1,1.2-10.2,1.9-15.3c2.9,0.1,6.3-0.5,8.8,1.4C154.7,21.4,155,24.3,154.6,26.6z"/>
</g>
</svg>
